<?xml version="1.0" encoding="utf-8"?>
<!-- Generator: Adobe Illustrator 26.0.0, SVG Export Plug-In . SVG Version: 6.00 Build 0)  -->
<svg version="1.1" id="Capa_1" xmlns="http://www.w3.org/2000/svg" xmlns:xlink="http://www.w3.org/1999/xlink" x="0px" y="0px"
	 viewBox="0 0 200 200" style="enable-background:new 0 0 200 200;" xml:space="preserve">
<style type="text/css">
	.st0{fill:none;stroke:#FFFFFF;stroke-width:6;stroke-linecap:round;stroke-linejoin:round;stroke-miterlimit:10;}
</style>
<line class="st0" x1="79" y1="67.2" x2="130.4" y2="67.2"/>
<line class="st0" x1="79.4" y1="86.7" x2="130.8" y2="86.7"/>
<path class="st0" d="M55.7,50.2H42.8c-1.8,0-3.3-1.5-3.3-3.3c0-1.8,1.5-3.3,3.3-3.3h12.9c1.8,0,3.3,1.5,3.3,3.3
	C59,48.7,57.5,50.2,55.7,50.2z"/>
<path class="st0" d="M55.7,70.2H42.8c-1.8,0-3.3-1.5-3.3-3.3c0-1.8,1.5-3.3,3.3-3.3h12.9c1.8,0,3.3,1.5,3.3,3.3
	C59,68.7,57.5,70.2,55.7,70.2z"/>
<path class="st0" d="M55.7,90.2H42.8c-1.8,0-3.3-1.5-3.3-3.3c0-1.8,1.5-3.3,3.3-3.3h12.9c1.8,0,3.3,1.5,3.3,3.3
	C59,88.7,57.5,90.2,55.7,90.2z"/>
<path class="st0" d="M55.7,110.2H42.8c-1.8,0-3.3-1.5-3.3-3.3c0-1.8,1.5-3.3,3.3-3.3h12.9c1.8,0,3.3,1.5,3.3,3.3
	C59,108.7,57.5,110.2,55.7,110.2z"/>
<path class="st0" d="M55.7,130.2H42.8c-1.8,0-3.3-1.5-3.3-3.3c0-1.8,1.5-3.3,3.3-3.3h12.9c1.8,0,3.3,1.5,3.3,3.3
	C59,128.7,57.5,130.2,55.7,130.2z"/>
<path class="st0" d="M55.7,150.2H42.8c-1.8,0-3.3-1.5-3.3-3.3c0-1.8,1.5-3.3,3.3-3.3h12.9c1.8,0,3.3,1.5,3.3,3.3
	C59,148.7,57.5,150.2,55.7,150.2z"/>
<path class="st0" d="M55.7,170.2H42.8c-1.8,0-3.3-1.5-3.3-3.3c0-1.8,1.5-3.3,3.3-3.3h12.9c1.8,0,3.3,1.5,3.3,3.3
	C59,168.7,57.5,170.2,55.7,170.2z"/>
<line class="st0" x1="49.2" y1="63.6" x2="49.2" y2="50.2"/>
<line class="st0" x1="49.2" y1="83.6" x2="49.2" y2="70.2"/>
<line class="st0" x1="49.2" y1="103.6" x2="49.2" y2="90.2"/>
<line class="st0" x1="49.2" y1="123.6" x2="49.2" y2="110.2"/>
<line class="st0" x1="49.2" y1="143.6" x2="49.2" y2="130.2"/>
<line class="st0" x1="49.2" y1="163.6" x2="49.2" y2="150.2"/>
<polyline class="st0" points="49.2,43.6 49.2,28 160.5,28 160.5,185.8 49.2,185.8 49.2,170.2 "/>
</svg>
